<svg width="38" height="38" viewBox="0 0 38 38" fill="none" xmlns="http://www.w3.org/2000/svg">
<rect x="0.5" y="0.5" width="37" height="37" rx="18.5" fill="#2767B1"/>
<path d="M13.4819 10C12.3877 10 11.5 10.8862 11.5 11.9805C11.5 13.0747 12.387 13.9814 13.4805 13.9814C14.574 13.9814 15.4624 13.0747 15.4624 11.9805C15.4624 10.887 14.5762 10 13.4819 10ZM23.1514 15.25C21.4871 15.25 20.5349 16.1203 20.0781 16.9858H20.0298V15.4829H16.75V26.5H20.1675V21.0464C20.1675 19.6094 20.2759 18.2207 22.0542 18.2207C23.8069 18.2207 23.8325 19.8592 23.8325 21.1372V26.5H27.2456H27.25V20.4487C27.25 17.4877 26.6134 15.25 23.1514 15.25ZM11.7725 15.4829V26.5H15.1929V15.4829H11.7725Z" fill="white"/>
<rect x="0.5" y="0.5" width="37" height="37" rx="18.5" stroke="#2767B1"/>
</svg>
