<svg width="38" height="38" viewBox="0 0 38 38" fill="none" xmlns="http://www.w3.org/2000/svg">
<rect x="0.5" y="0.5" width="37" height="37" rx="18.5" fill="#E60023"/>
<path d="M19 10C14.0283 10 10 14.0283 10 19C10 22.8145 12.373 26.0693 15.7217 27.3818C15.6426 26.6699 15.5693 25.5771 15.751 24.7979C15.915 24.0977 16.8057 20.3242 16.8057 20.3242C16.8057 20.3242 16.5391 19.7852 16.5391 18.9883C16.5391 17.7373 17.2627 16.8027 18.165 16.8027C18.9326 16.8027 19.3047 17.3799 19.3047 18.0713C19.3047 18.8447 18.8125 19.999 18.5576 21.0684C18.3467 21.9648 19.0088 22.6943 19.8906 22.6943C21.4902 22.6943 22.7207 21.0068 22.7207 18.5723C22.7207 16.4189 21.1738 14.9131 18.9619 14.9131C16.4014 14.9131 14.8984 16.832 14.8984 18.8184C14.8984 19.5918 15.1973 20.4209 15.5693 20.8721C15.6426 20.96 15.6514 21.0391 15.6309 21.1299C15.5605 21.4141 15.4111 22.0264 15.3818 22.1494C15.3408 22.3164 15.25 22.3516 15.0801 22.2695C13.9551 21.748 13.252 20.1045 13.252 18.7832C13.252 15.9443 15.3145 13.3369 19.1992 13.3369C22.3223 13.3369 24.748 15.5605 24.748 18.5371C24.748 21.6367 22.791 24.1328 20.0781 24.1328C19.167 24.1328 18.3086 23.6611 18.0156 23.1016C18.0156 23.1016 17.5645 24.8184 17.4531 25.2402C17.251 26.0225 16.7031 27.001 16.334 27.5986C17.1777 27.8594 18.0713 28 19 28C23.9717 28 28 23.9717 28 19C28 14.0283 23.9717 10 19 10Z" fill="white"/>
<rect x="0.5" y="0.5" width="37" height="37" rx="18.5" stroke="#E60023"/>
</svg>
