<svg width="40" height="40" viewBox="0 0 40 40" fill="none" xmlns="http://www.w3.org/2000/svg">
<g clip-path="url(#clip0_1404_4377)">
<mask id="mask0_1404_4377" style="mask-type:alpha" maskUnits="userSpaceOnUse" x="0" y="0" width="40" height="40">
<path fill-rule="evenodd" clip-rule="evenodd" d="M20 40C31.0457 40 40 31.0457 40 20C40 8.95431 31.0457 0 20 0C8.95431 0 0 8.95431 0 20C0 31.0457 8.95431 40 20 40Z" fill="white"/>
</mask>
<g mask="url(#mask0_1404_4377)">
<path fill-rule="evenodd" clip-rule="evenodd" d="M20 40C31.0457 40 40 31.0457 40 20C40 8.95431 31.0457 0 20 0C8.95431 0 0 8.95431 0 20C0 31.0457 8.95431 40 20 40Z" fill="#0069FF"/>
<path d="M28.9945 11.9697C28.9945 11.9697 29.5634 16.0231 31.2701 18.7254C33.7313 22.6221 30.5588 23.1341 31.1988 25.8364C31.8388 28.5387 36.7455 30.8141 30.9145 37.0008C27.0981 41.0498 22.5234 33.1608 22.5234 33.1608L21.2434 22.8497L28.9945 11.9697Z" fill="#FF6A59"/>
<path d="M27.1116 18.5646C26.4959 18.1034 25.8975 17.6268 25.3125 17.1381L21.2434 22.181L22.5234 31.2853C22.5234 31.2853 23.6558 33.0088 25.2635 34.3012C25.681 33.8384 26.6625 35.9839 27.2167 35.7919C29.0655 35.1519 32.4078 31.5965 29.9901 28.8942C27.1022 25.6667 30.5588 21.9965 27.1116 18.5646Z" fill="#F2534F"/>
<path d="M24.2736 31.5991C22.4641 30.612 22.9575 25.841 22.9575 25.841L20.2476 26.0155V25.8417L19.9576 25.9287L19.6675 25.8417V26.0155L16.9575 25.841C16.9575 25.841 17.4512 30.612 15.6417 31.5991C13.8322 32.5862 3.13972 33.0796 4.29108 44.1011H19.6675H20.2476H35.624C36.7756 33.0796 26.0831 32.5862 24.2736 31.5991Z" fill="#FF9D7B"/>
<path d="M16.5776 30.3683C18.7423 30.0458 20.9055 29.7128 23.0672 29.3697C22.763 27.7247 22.9576 25.841 22.9576 25.841L20.2476 26.0157V25.8416L19.9575 25.9287L19.6676 25.8416V26.0157L16.9576 25.841C16.9576 25.841 17.2432 28.613 16.5776 30.3683Z" fill="#DA7E65"/>
<path d="M26.8035 39.7742C26.3227 37.3616 26.4366 34.798 27.0229 32.4336C26.565 32.3007 26.1377 32.1874 25.7574 32.0848C25.5848 34.0765 25.351 36.0989 24.6017 37.893C24.3131 38.5842 23.9647 39.2061 23.5615 39.7742H26.8035Z" fill="#352836"/>
<path d="M30.0969 33.4709C28.3077 35.9189 24.4726 37.6117 20.0289 37.6117C15.5854 37.6117 11.7503 35.9189 9.96082 33.4709C6.77682 34.9722 3.63891 37.8517 4.29171 44.1011H19.7377H20.3203H35.766C36.4191 37.8517 33.2809 34.9722 30.0969 33.4709Z" fill="#438685"/>
<path d="M19.2167 41.1964C25.5373 41.1964 31.0691 39.3684 34.1127 36.6349C33.0305 35.1548 31.5689 34.1649 30.0967 33.471C28.3075 35.919 24.4724 37.6118 20.0289 37.6118C15.5851 37.6118 11.75 35.919 9.96081 33.471C8.22193 34.2908 6.49841 35.5234 5.39697 37.4895C8.57415 39.7421 13.5809 41.1964 19.2167 41.1964Z" fill="#559C9A"/>
<path d="M14.659 18.8573C14.1259 17.2033 12.8633 17.5863 12.7452 17.6262C12.6212 17.6407 11.3163 17.8344 11.5417 19.5575C11.7685 21.291 12.7742 22.2303 13.7173 21.9545C14.688 21.8007 15.1953 20.5213 14.659 18.8573Z" fill="#DA7E65"/>
<path d="M25.3047 18.8573C25.8378 17.2033 27.1003 17.5863 27.2185 17.6262C27.3425 17.6407 28.6474 17.8344 28.4219 19.5575C28.1952 21.291 27.1895 22.2303 26.2464 21.9545C25.2757 21.8007 24.7684 20.5213 25.3047 18.8573Z" fill="#DA7E65"/>
<path d="M13.3657 16.3517C14.0264 9.10025 19.5391 9.50644 20.059 9.56105C20.5789 9.50644 26.0915 9.10025 26.7522 16.3517C27.4169 23.6462 24.1678 28.4103 20.059 28.1481C15.95 28.4103 12.701 23.6462 13.3657 16.3517Z" fill="#FF9D7B"/>
<path d="M16.0876 10.512C16.0876 10.512 16.7633 16.023 22.2387 17.0897L20.8876 13.712C20.8876 13.712 21.3499 17.801 26.7899 17.5876C26.7899 17.5876 28.781 18.512 28.0699 20.6453C28.0699 20.6453 30.0253 19.0097 29.2787 16.2364C28.532 13.463 30.2743 13.2853 27.501 9.19636C25.0549 5.58996 17.0476 5.17866 16.0876 10.512Z" fill="#FF6A59"/>
<path d="M17.6167 9.33869C17.6167 9.33869 14.9856 7.20535 12.9944 9.62306C11.0033 12.041 11.501 15.8097 9.65229 18.1564C7.80333 20.5031 8.0877 22.5654 10.3633 24.7697C12.639 26.9743 3.96333 29.0364 6.73667 34.512C9.51 39.9876 16.4077 37.072 16.9056 32.7343C17.4033 28.3964 17.119 27.472 17.119 27.472C17.119 27.472 14.2033 25.1964 13.7056 21.5697C13.2077 17.9431 14.061 16.1654 15.6256 14.8854C17.19 13.6054 18.6123 12.4676 17.6167 9.33869Z" fill="#FF6A59"/>
<path d="M8.01659 31.952C7.43675 30.8324 7.35227 29.9608 7.55963 29.2491C6.38907 30.5922 5.59824 32.2646 6.73659 34.512C9.50992 39.9876 16.4076 37.072 16.9055 32.7343C16.9164 32.6381 16.9267 32.5455 16.9369 32.4527C14.7543 34.1769 10.1572 36.0851 8.01659 31.952Z" fill="#F2534F"/>
<path d="M21.0095 19.977C21.1004 20.1445 21.1706 20.3162 21.2339 20.4897C21.2967 20.6629 21.3498 20.8385 21.3971 21.0151C21.4223 21.103 21.44 21.1926 21.4616 21.2813C21.484 21.3699 21.5008 21.4597 21.517 21.5495C21.5527 21.7285 21.5778 21.9098 21.5983 22.0922L21.6077 22.1773L21.5614 22.2196C21.4136 22.355 21.2617 22.4867 21.1072 22.6157C20.9502 22.7425 20.7943 22.8702 20.6257 22.9857C20.735 22.8131 20.857 22.6526 20.9779 22.4912C21.1015 22.3322 21.2275 22.1756 21.3575 22.0229L21.3208 22.1505C21.2662 21.9753 21.2162 21.7991 21.177 21.621C21.1556 21.532 21.1352 21.443 21.1198 21.353C21.104 21.263 21.0842 21.174 21.0718 21.0834C21.0443 20.9025 21.0223 20.7205 21.0099 20.5366C20.9984 20.3525 20.9935 20.1669 21.0095 19.977Z" fill="#B36651"/>
<path d="M22.8693 24.2883C21.5569 25.564 19.3337 25.4934 17.6499 24.3563L22.8693 24.2883Z" fill="white"/>
<path d="M25.2578 17.5182C25.2578 17.5182 25.2004 17.4865 25.0999 17.4308C25.0511 17.4041 24.9918 17.3717 24.9239 17.3344C24.8574 17.2992 24.7821 17.2595 24.7001 17.2162C24.6154 17.1799 24.5307 17.131 24.436 17.0939C24.3902 17.0734 24.343 17.0525 24.2948 17.031C24.2462 17.0133 24.1965 16.9952 24.1461 16.9768C24.0478 16.9333 23.9409 16.9175 23.8389 16.8812C23.7331 16.8704 23.6294 16.8303 23.5238 16.8343L23.3666 16.8215C23.3147 16.8277 23.2631 16.8294 23.2113 16.8324C23.1063 16.8279 23.0088 16.8669 22.9075 16.8795C22.8064 16.8955 22.7159 16.9444 22.621 16.9693L22.5508 16.9911L22.487 17.0233C22.4435 17.0436 22.4017 17.0632 22.3614 17.082C22.2814 17.1219 22.1992 17.1505 22.1374 17.1936C22.0738 17.2334 22.0132 17.2648 21.9637 17.2921C21.8641 17.3459 21.8003 17.3742 21.8003 17.3742C21.8003 17.3742 21.8255 17.3134 21.8818 17.2119C21.9102 17.1616 21.9443 17.0986 21.9893 17.0301C22.029 16.9568 22.0919 16.8898 22.1634 16.817C22.2372 16.7477 22.3035 16.6517 22.4083 16.5911C22.5101 16.5288 22.6112 16.4443 22.7377 16.3974C22.8004 16.372 22.8657 16.3494 22.9318 16.3259C22.9971 16.2982 23.0673 16.2863 23.1392 16.2779C23.2106 16.2681 23.283 16.257 23.3559 16.2502C23.4285 16.2513 23.5016 16.2564 23.5746 16.2604C23.7226 16.2634 23.8594 16.3125 23.9966 16.346C24.0623 16.3697 24.1254 16.3983 24.1877 16.4253C24.2513 16.4509 24.3108 16.4804 24.365 16.5169C24.4205 16.551 24.4755 16.583 24.5271 16.6178C24.5753 16.656 24.6227 16.6933 24.6688 16.7298C24.762 16.8002 24.8326 16.8864 24.9032 16.957C25.0361 17.1082 25.1274 17.2475 25.1814 17.3512C25.2377 17.4536 25.2578 17.5182 25.2578 17.5182Z" fill="#352836"/>
<path d="M18.3908 17.5182C18.3908 17.5182 18.3335 17.4865 18.233 17.4308C18.1841 17.4041 18.1248 17.3717 18.057 17.3344C17.9904 17.2992 17.9151 17.2595 17.8332 17.2162C17.7485 17.1799 17.6638 17.131 17.5691 17.0939C17.5232 17.0734 17.4761 17.0525 17.4279 17.031C17.3792 17.0133 17.3295 16.9952 17.2792 16.9768C17.1808 16.9333 17.0739 16.9175 16.972 16.8812C16.8661 16.8704 16.7625 16.8303 16.6569 16.8343L16.4996 16.8215C16.4478 16.8277 16.3962 16.8294 16.3443 16.8324C16.2394 16.8279 16.1419 16.8669 16.0405 16.8795C15.9394 16.8955 15.849 16.9444 15.754 16.9693L15.6839 16.9911L15.6201 17.0233C15.5765 17.0436 15.5347 17.0632 15.4944 17.082C15.4144 17.1219 15.3323 17.1505 15.2704 17.1936C15.2068 17.2334 15.1465 17.2648 15.0968 17.2921C14.9971 17.3459 14.9333 17.3742 14.9333 17.3742C14.9333 17.3742 14.9585 17.3134 15.0148 17.2119C15.0432 17.1616 15.0773 17.0986 15.1221 17.0301C15.162 16.9568 15.225 16.8898 15.2964 16.817C15.3703 16.7477 15.4366 16.6517 15.5413 16.5911C15.6431 16.5288 15.7442 16.4443 15.8707 16.3974C15.9335 16.372 15.9987 16.3494 16.0649 16.3259C16.1301 16.2982 16.2003 16.2863 16.2722 16.2779C16.3437 16.2681 16.416 16.257 16.489 16.2502C16.5615 16.2513 16.6347 16.2564 16.7076 16.2604C16.8557 16.2634 16.9924 16.3125 17.1296 16.346C17.1953 16.3697 17.2585 16.3983 17.3208 16.4253C17.3843 16.4509 17.4439 16.4804 17.498 16.5169C17.5535 16.551 17.6085 16.583 17.6602 16.6178C17.7084 16.656 17.7557 16.6933 17.8018 16.7298C17.8951 16.8002 17.9657 16.8864 18.0363 16.957C18.169 17.1082 18.2605 17.2475 18.3145 17.3512C18.3708 17.4536 18.3908 17.5182 18.3908 17.5182Z" fill="#352836"/>
<path d="M18.1728 20.1459C18.1728 20.1459 18.1579 20.0871 18.1244 19.9885C18.0909 19.8899 18.0389 19.7513 17.9576 19.5994C17.8752 19.4488 17.7603 19.2849 17.5998 19.1655C17.5209 19.1051 17.4302 19.0571 17.3319 19.0272C17.2835 19.0101 17.234 18.9941 17.1804 18.9907C17.1282 18.9837 17.0763 18.9726 17.0215 18.9781C16.9707 18.9801 16.9061 18.9737 16.8666 18.9809C16.8111 18.9916 16.7416 18.9944 16.6987 19.0112C16.6121 19.0394 16.5133 19.0724 16.4389 19.1345C16.3591 19.1891 16.2977 19.264 16.2422 19.3383C16.1923 19.417 16.1494 19.4972 16.1182 19.5768C16.0564 19.7357 16.025 19.8808 16.0067 19.9829C15.9885 20.0853 15.9832 20.1459 15.9832 20.1459C15.9832 20.1459 15.967 20.0873 15.9561 19.981C15.9461 19.8752 15.9399 19.7203 15.9779 19.5352C15.9962 19.4426 16.0278 19.3432 16.0777 19.2425C16.1319 19.1452 16.1974 19.0394 16.2979 18.96C16.3922 18.8743 16.5095 18.8113 16.6462 18.7708C16.7139 18.7475 16.7651 18.7469 16.8259 18.7337C16.9035 18.72 16.9594 18.7268 17.0275 18.7234C17.0923 18.7196 17.158 18.7332 17.2233 18.7441C17.289 18.7512 17.3519 18.7721 17.414 18.7953C17.4778 18.813 17.5348 18.8463 17.59 18.8802C17.6478 18.9099 17.6946 18.9534 17.7426 18.9929C17.9294 19.1588 18.0333 19.3658 18.0914 19.5418C18.1509 19.7195 18.1677 19.8729 18.1739 19.9791C18.1792 20.0856 18.1728 20.1459 18.1728 20.1459Z" fill="#352836"/>
<path d="M24.3437 20.0464C24.3437 20.0464 24.3288 19.9875 24.2953 19.8889C24.2618 19.7904 24.2098 19.6517 24.1285 19.4998C24.0461 19.3492 23.9312 19.1854 23.7707 19.0659C23.6918 19.0055 23.6011 18.9575 23.5028 18.9277C23.4544 18.9106 23.4049 18.8946 23.3513 18.8912C23.2991 18.8841 23.2472 18.8731 23.1924 18.8786C23.1416 18.8805 23.077 18.8741 23.0375 18.8814C22.982 18.892 22.9125 18.8948 22.8696 18.9117C22.783 18.9398 22.6842 18.9729 22.6098 19.0348C22.53 19.0896 22.4685 19.1645 22.4131 19.2387C22.3632 19.3174 22.3205 19.3976 22.2891 19.4772C22.2273 19.6361 22.1959 19.7812 22.1776 19.8834C22.1594 19.9858 22.1541 20.0464 22.1541 20.0464C22.1541 20.0464 22.1379 19.9879 22.127 19.8815C22.117 19.7757 22.1108 19.6208 22.1488 19.4356C22.1671 19.343 22.1987 19.2436 22.2486 19.1429C22.3028 19.0456 22.3683 18.9398 22.4688 18.8605C22.5631 18.7747 22.6806 18.7118 22.8171 18.671C22.8848 18.648 22.936 18.6473 22.9968 18.6341C23.0744 18.6205 23.1303 18.6273 23.1984 18.6239C23.2632 18.62 23.3289 18.6337 23.3942 18.6446C23.4599 18.6516 23.5228 18.6725 23.5849 18.6958C23.6487 18.7135 23.7057 18.7468 23.7609 18.7807C23.8187 18.8103 23.8655 18.8539 23.9135 18.8935C24.1003 19.0593 24.2042 19.2662 24.2623 19.4422C24.3218 19.6199 24.3386 19.7733 24.3448 19.8796C24.3501 19.986 24.3437 20.0464 24.3437 20.0464Z" fill="#352836"/>
</g>
</g>
<defs>
<clipPath id="clip0_1404_4377">
<rect width="40" height="40" fill="white"/>
</clipPath>
</defs>
</svg>
